<svg xmlns="http://www.w3.org/2000/svg" width="730" height="170" role="img" aria-label="LeetCode activity over the last 365 days"><rect width="100%" height="100%" rx="12" fill="#0d1117"/><style>text{font-family:-apple-system,BlinkMacSystemFont,Segoe UI,sans-serif;fill:#8b949e}.h{font-size:16px;font-weight:650;fill:#f0f6fc}.s{font-size:11px}</style><text x="26" y="28" class="h">LeetCode activity · last 365 days</text><text x="26" y="44" class="s">20 total active days · 17 day current streak · 17 day longest streak</text><rect x="26" y="56" width="10" height="10" rx="2" fill="#161b22"><title>2025-08-12: 0 submissions</title></rect><rect x="26" y="69" width="10" height="10" rx="2" fill="#161b22"><title>2025-08-13: 0 submissions</title></rect><rect x="26" y="82" width="10" height="10" rx="2" fill="#161b22"><title>2025-08-14: 0 submissions</title></rect><rect x="26" y="95" width="10" height="10" rx="2" fill="#161b22"><title>2025-08-15: 0 submissions</title></rect><rect x="26" y="108" width="10" height="10" rx="2" fill="#161b22"><title>2025-08-16: 0 submissions</title></rect><rect x="26" y="121" width="10" height="10" rx="2" fill="#161b22"><title>2025-08-17: 0 submissions</title></rect><rect x="26" y="134" width="10" height="10" rx="2" fill="#161b22"><title>2025-08-18: 0 submissions</title></rect><rect x="39" y="56" width="10" height="10" rx="2" fill="#161b22"><title>2025-08-19: 0 submissions</title></rect><rect x="39" y="69" width="10" height="10" rx="2" fill="#161b22"><title>2025-08-20: 0 submissions</title></rect><rect x="39" y="82" width="10" height="10" rx="2" fill="#161b22"><title>2025-08-21: 0 submissions</title></rect><rect x="39" y="95" width="10" height="10" rx="2" fill="#161b22"><title>2025-08-22: 0 submissions</title></rect><rect x="39" y="108" width="10" height="10" rx="2" fill="#161b22"><title>2025-08-23: 0 submissions</title></rect><rect x="39" y="121" width="10" height="10" rx="2" fill="#161b22"><title>2025-08-24: 0 submissions</title></rect><rect x="39" y="134" width="10" height="10" rx="2" fill="#161b22"><title>2025-08-25: 0 submissions</title></rect><rect x="52" y="56" width="10" height="10" rx="2" fill="#161b22"><title>2025-08-26: 0 submissions</title></rect><rect x="52" y="69" width="10" height="10" rx="2" fill="#161b22"><title>2025-08-27: 0 submissions</title></rect><rect x="52" y="82" width="10" height="10" rx="2" fill="#161b22"><title>2025-08-28: 0 submissions</title></rect><rect x="52" y="95" width="10" height="10" rx="2" fill="#161b22"><title>2025-08-29: 0 submissions</title></rect><rect x="52" y="108" width="10" height="10" rx="2" fill="#161b22"><title>2025-08-30: 0 submissions</title></rect><rect x="52" y="121" width="10" height="10" rx="2" fill="#161b22"><title>2025-08-31: 0 submissions</title></rect><rect x="52" y="134" width="10" height="10" rx="2" fill="#161b22"><title>2025-09-01: 0 submissions</title></rect><rect x="65" y="56" width="10" height="10" rx="2" fill="#161b22"><title>2025-09-02: 0 submissions</title></rect><rect x="65" y="69" width="10" height="10" rx="2" fill="#161b22"><title>2025-09-03: 0 submissions</title></rect><rect x="65" y="82" width="10" height="10" rx="2" fill="#161b22"><title>2025-09-04: 0 submissions</title></rect><rect x="65" y="95" width="10" height="10" rx="2" fill="#161b22"><title>2025-09-05: 0 submissions</title></rect><rect x="65" y="108" width="10" height="10" rx="2" fill="#161b22"><title>2025-09-06: 0 submissions</title></rect><rect x="65" y="121" width="10" height="10" rx="2" fill="#161b22"><title>2025-09-07: 0 submissions</title></rect><rect x="65" y="134" width="10" height="10" rx="2" fill="#161b22"><title>2025-09-08: 0 submissions</title></rect><rect x="78" y="56" width="10" height="10" rx="2" fill="#161b22"><title>2025-09-09: 0 submissions</title></rect><rect x="78" y="69" width="10" height="10" rx="2" fill="#161b22"><title>2025-09-10: 0 submissions</title></rect><rect x="78" y="82" width="10" height="10" rx="2" fill="#161b22"><title>2025-09-11: 0 submissions</title></rect><rect x="78" y="95" width="10" height="10" rx="2" fill="#161b22"><title>2025-09-12: 0 submissions</title></rect><rect x="78" y="108" width="10" height="10" rx="2" fill="#161b22"><title>2025-09-13: 0 submissions</title></rect><rect x="78" y="121" width="10" height="10" rx="2" fill="#161b22"><title>2025-09-14: 0 submissions</title></rect><rect x="78" y="134" width="10" height="10" rx="2" fill="#161b22"><title>2025-09-15: 0 submissions</title></rect><rect x="91" y="56" width="10" height="10" rx="2" fill="#161b22"><title>2025-09-16: 0 submissions</title></rect><rect x="91" y="69" width="10" height="10" rx="2" fill="#161b22"><title>2025-09-17: 0 submissions</title></rect><rect x="91" y="82" width="10" height="10" rx="2" fill="#161b22"><title>2025-09-18: 0 submissions</title></rect><rect x="91" y="95" width="10" height="10" rx="2" fill="#161b22"><title>2025-09-19: 0 submissions</title></rect><rect x="91" y="108" width="10" height="10" rx="2" fill="#161b22"><title>2025-09-20: 0 submissions</title></rect><rect x="91" y="121" width="10" height="10" rx="2" fill="#161b22"><title>2025-09-21: 0 submissions</title></rect><rect x="91" y="134" width="10" height="10" rx="2" fill="#161b22"><title>2025-09-22: 0 submissions</title></rect><rect x="104" y="56" width="10" height="10" rx="2" fill="#161b22"><title>2025-09-23: 0 submissions</title></rect><rect x="104" y="69" width="10" height="10" rx="2" fill="#161b22"><title>2025-09-24: 0 submissions</title></rect><rect x="104" y="82" width="10" height="10" rx="2" fill="#161b22"><title>2025-09-25: 0 submissions</title></rect><rect x="104" y="95" width="10" height="10" rx="2" fill="#161b22"><title>2025-09-26: 0 submissions</title></rect><rect x="104" y="108" width="10" height="10" rx="2" fill="#161b22"><title>2025-09-27: 0 submissions</title></rect><rect x="104" y="121" width="10" height="10" rx="2" fill="#161b22"><title>2025-09-28: 0 submissions</title></rect><rect x="104" y="134" width="10" height="10" rx="2" fill="#161b22"><title>2025-09-29: 0 submissions</title></rect><rect x="117" y="56" width="10" height="10" rx="2" fill="#161b22"><title>2025-09-30: 0 submissions</title></rect><rect x="117" y="69" width="10" height="10" rx="2" fill="#161b22"><title>2025-10-01: 0 submissions</title></rect><rect x="117" y="82" width="10" height="10" rx="2" fill="#161b22"><title>2025-10-02: 0 submissions</title></rect><rect x="117" y="95" width="10" height="10" rx="2" fill="#161b22"><title>2025-10-03: 0 submissions</title></rect><rect x="117" y="108" width="10" height="10" rx="2" fill="#161b22"><title>2025-10-04: 0 submissions</title></rect><rect x="117" y="121" width="10" height="10" rx="2" fill="#161b22"><title>2025-10-05: 0 submissions</title></rect><rect x="117" y="134" width="10" height="10" rx="2" fill="#161b22"><title>2025-10-06: 0 submissions</title></rect><rect x="130" y="56" width="10" height="10" rx="2" fill="#161b22"><title>2025-10-07: 0 submissions</title></rect><rect x="130" y="69" width="10" height="10" rx="2" fill="#161b22"><title>2025-10-08: 0 submissions</title></rect><rect x="130" y="82" width="10" height="10" rx="2" fill="#161b22"><title>2025-10-09: 0 submissions</title></rect><rect x="130" y="95" width="10" height="10" rx="2" fill="#161b22"><title>2025-10-10: 0 submissions</title></rect><rect x="130" y="108" width="10" height="10" rx="2" fill="#161b22"><title>2025-10-11: 0 submissions</title></rect><rect x="130" y="121" width="10" height="10" rx="2" fill="#161b22"><title>2025-10-12: 0 submissions</title></rect><rect x="130" y="134" width="10" height="10" rx="2" fill="#161b22"><title>2025-10-13: 0 submissions</title></rect><rect x="143" y="56" width="10" height="10" rx="2" fill="#161b22"><title>2025-10-14: 0 submissions</title></rect><rect x="143" y="69" width="10" height="10" rx="2" fill="#161b22"><title>2025-10-15: 0 submissions</title></rect><rect x="143" y="82" width="10" height="10" rx="2" fill="#161b22"><title>2025-10-16: 0 submissions</title></rect><rect x="143" y="95" width="10" height="10" rx="2" fill="#161b22"><title>2025-10-17: 0 submissions</title></rect><rect x="143" y="108" width="10" height="10" rx="2" fill="#161b22"><title>2025-10-18: 0 submissions</title></rect><rect x="143" y="121" width="10" height="10" rx="2" fill="#161b22"><title>2025-10-19: 0 submissions</title></rect><rect x="143" y="134" width="10" height="10" rx="2" fill="#161b22"><title>2025-10-20: 0 submissions</title></rect><rect x="156" y="56" width="10" height="10" rx="2" fill="#161b22"><title>2025-10-21: 0 submissions</title></rect><rect x="156" y="69" width="10" height="10" rx="2" fill="#161b22"><title>2025-10-22: 0 submissions</title></rect><rect x="156" y="82" width="10" height="10" rx="2" fill="#161b22"><title>2025-10-23: 0 submissions</title></rect><rect x="156" y="95" width="10" height="10" rx="2" fill="#161b22"><title>2025-10-24: 0 submissions</title></rect><rect x="156" y="108" width="10" height="10" rx="2" fill="#161b22"><title>2025-10-25: 0 submissions</title></rect><rect x="156" y="121" width="10" height="10" rx="2" fill="#161b22"><title>2025-10-26: 0 submissions</title></rect><rect x="156" y="134" width="10" height="10" rx="2" fill="#161b22"><title>2025-10-27: 0 submissions</title></rect><rect x="169" y="56" width="10" height="10" rx="2" fill="#161b22"><title>2025-10-28: 0 submissions</title></rect><rect x="169" y="69" width="10" height="10" rx="2" fill="#161b22"><title>2025-10-29: 0 submissions</title></rect><rect x="169" y="82" width="10" height="10" rx="2" fill="#161b22"><title>2025-10-30: 0 submissions</title></rect><rect x="169" y="95" width="10" height="10" rx="2" fill="#161b22"><title>2025-10-31: 0 submissions</title></rect><rect x="169" y="108" width="10" height="10" rx="2" fill="#161b22"><title>2025-11-01: 0 submissions</title></rect><rect x="169" y="121" width="10" height="10" rx="2" fill="#161b22"><title>2025-11-02: 0 submissions</title></rect><rect x="169" y="134" width="10" height="10" rx="2" fill="#161b22"><title>2025-11-03: 0 submissions</title></rect><rect x="182" y="56" width="10" height="10" rx="2" fill="#161b22"><title>2025-11-04: 0 submissions</title></rect><rect x="182" y="69" width="10" height="10" rx="2" fill="#161b22"><title>2025-11-05: 0 submissions</title></rect><rect x="182" y="82" width="10" height="10" rx="2" fill="#161b22"><title>2025-11-06: 0 submissions</title></rect><rect x="182" y="95" width="10" height="10" rx="2" fill="#161b22"><title>2025-11-07: 0 submissions</title></rect><rect x="182" y="108" width="10" height="10" rx="2" fill="#161b22"><title>2025-11-08: 0 submissions</title></rect><rect x="182" y="121" width="10" height="10" rx="2" fill="#161b22"><title>2025-11-09: 0 submissions</title></rect><rect x="182" y="134" width="10" height="10" rx="2" fill="#161b22"><title>2025-11-10: 0 submissions</title></rect><rect x="195" y="56" width="10" height="10" rx="2" fill="#161b22"><title>2025-11-11: 0 submissions</title></rect><rect x="195" y="69" width="10" height="10" rx="2" fill="#161b22"><title>2025-11-12: 0 submissions</title></rect><rect x="195" y="82" width="10" height="10" rx="2" fill="#161b22"><title>2025-11-13: 0 submissions</title></rect><rect x="195" y="95" width="10" height="10" rx="2" fill="#161b22"><title>2025-11-14: 0 submissions</title></rect><rect x="195" y="108" width="10" height="10" rx="2" fill="#161b22"><title>2025-11-15: 0 submissions</title></rect><rect x="195" y="121" width="10" height="10" rx="2" fill="#161b22"><title>2025-11-16: 0 submissions</title></rect><rect x="195" y="134" width="10" height="10" rx="2" fill="#161b22"><title>2025-11-17: 0 submissions</title></rect><rect x="208" y="56" width="10" height="10" rx="2" fill="#161b22"><title>2025-11-18: 0 submissions</title></rect><rect x="208" y="69" width="10" height="10" rx="2" fill="#161b22"><title>2025-11-19: 0 submissions</title></rect><rect x="208" y="82" width="10" height="10" rx="2" fill="#161b22"><title>2025-11-20: 0 submissions</title></rect><rect x="208" y="95" width="10" height="10" rx="2" fill="#161b22"><title>2025-11-21: 0 submissions</title></rect><rect x="208" y="108" width="10" height="10" rx="2" fill="#161b22"><title>2025-11-22: 0 submissions</title></rect><rect x="208" y="121" width="10" height="10" rx="2" fill="#161b22"><title>2025-11-23: 0 submissions</title></rect><rect x="208" y="134" width="10" height="10" rx="2" fill="#161b22"><title>2025-11-24: 0 submissions</title></rect><rect x="221" y="56" width="10" height="10" rx="2" fill="#161b22"><title>2025-11-25: 0 submissions</title></rect><rect x="221" y="69" width="10" height="10" rx="2" fill="#161b22"><title>2025-11-26: 0 submissions</title></rect><rect x="221" y="82" width="10" height="10" rx="2" fill="#161b22"><title>2025-11-27: 0 submissions</title></rect><rect x="221" y="95" width="10" height="10" rx="2" fill="#161b22"><title>2025-11-28: 0 submissions</title></rect><rect x="221" y="108" width="10" height="10" rx="2" fill="#161b22"><title>2025-11-29: 0 submissions</title></rect><rect x="221" y="121" width="10" height="10" rx="2" fill="#161b22"><title>2025-11-30: 0 submissions</title></rect><rect x="221" y="134" width="10" height="10" rx="2" fill="#161b22"><title>2025-12-01: 0 submissions</title></rect><rect x="234" y="56" width="10" height="10" rx="2" fill="#161b22"><title>2025-12-02: 0 submissions</title></rect><rect x="234" y="69" width="10" height="10" rx="2" fill="#161b22"><title>2025-12-03: 0 submissions</title></rect><rect x="234" y="82" width="10" height="10" rx="2" fill="#161b22"><title>2025-12-04: 0 submissions</title></rect><rect x="234" y="95" width="10" height="10" rx="2" fill="#161b22"><title>2025-12-05: 0 submissions</title></rect><rect x="234" y="108" width="10" height="10" rx="2" fill="#161b22"><title>2025-12-06: 0 submissions</title></rect><rect x="234" y="121" width="10" height="10" rx="2" fill="#161b22"><title>2025-12-07: 0 submissions</title></rect><rect x="234" y="134" width="10" height="10" rx="2" fill="#161b22"><title>2025-12-08: 0 submissions</title></rect><rect x="247" y="56" width="10" height="10" rx="2" fill="#161b22"><title>2025-12-09: 0 submissions</title></rect><rect x="247" y="69" width="10" height="10" rx="2" fill="#161b22"><title>2025-12-10: 0 submissions</title></rect><rect x="247" y="82" width="10" height="10" rx="2" fill="#161b22"><title>2025-12-11: 0 submissions</title></rect><rect x="247" y="95" width="10" height="10" rx="2" fill="#161b22"><title>2025-12-12: 0 submissions</title></rect><rect x="247" y="108" width="10" height="10" rx="2" fill="#161b22"><title>2025-12-13: 0 submissions</title></rect><rect x="247" y="121" width="10" height="10" rx="2" fill="#161b22"><title>2025-12-14: 0 submissions</title></rect><rect x="247" y="134" width="10" height="10" rx="2" fill="#161b22"><title>2025-12-15: 0 submissions</title></rect><rect x="260" y="56" width="10" height="10" rx="2" fill="#161b22"><title>2025-12-16: 0 submissions</title></rect><rect x="260" y="69" width="10" height="10" rx="2" fill="#161b22"><title>2025-12-17: 0 submissions</title></rect><rect x="260" y="82" width="10" height="10" rx="2" fill="#161b22"><title>2025-12-18: 0 submissions</title></rect><rect x="260" y="95" width="10" height="10" rx="2" fill="#161b22"><title>2025-12-19: 0 submissions</title></rect><rect x="260" y="108" width="10" height="10" rx="2" fill="#161b22"><title>2025-12-20: 0 submissions</title></rect><rect x="260" y="121" width="10" height="10" rx="2" fill="#161b22"><title>2025-12-21: 0 submissions</title></rect><rect x="260" y="134" width="10" height="10" rx="2" fill="#161b22"><title>2025-12-22: 0 submissions</title></rect><rect x="273" y="56" width="10" height="10" rx="2" fill="#161b22"><title>2025-12-23: 0 submissions</title></rect><rect x="273" y="69" width="10" height="10" rx="2" fill="#161b22"><title>2025-12-24: 0 submissions</title></rect><rect x="273" y="82" width="10" height="10" rx="2" fill="#161b22"><title>2025-12-25: 0 submissions</title></rect><rect x="273" y="95" width="10" height="10" rx="2" fill="#161b22"><title>2025-12-26: 0 submissions</title></rect><rect x="273" y="108" width="10" height="10" rx="2" fill="#161b22"><title>2025-12-27: 0 submissions</title></rect><rect x="273" y="121" width="10" height="10" rx="2" fill="#161b22"><title>2025-12-28: 0 submissions</title></rect><rect x="273" y="134" width="10" height="10" rx="2" fill="#161b22"><title>2025-12-29: 0 submissions</title></rect><rect x="286" y="56" width="10" height="10" rx="2" fill="#161b22"><title>2025-12-30: 0 submissions</title></rect><rect x="286" y="69" width="10" height="10" rx="2" fill="#161b22"><title>2025-12-31: 0 submissions</title></rect><rect x="286" y="82" width="10" height="10" rx="2" fill="#161b22"><title>2026-01-01: 0 submissions</title></rect><rect x="286" y="95" width="10" height="10" rx="2" fill="#161b22"><title>2026-01-02: 0 submissions</title></rect><rect x="286" y="108" width="10" height="10" rx="2" fill="#161b22"><title>2026-01-03: 0 submissions</title></rect><rect x="286" y="121" width="10" height="10" rx="2" fill="#161b22"><title>2026-01-04: 0 submissions</title></rect><rect x="286" y="134" width="10" height="10" rx="2" fill="#161b22"><title>2026-01-05: 0 submissions</title></rect><rect x="299" y="56" width="10" height="10" rx="2" fill="#161b22"><title>2026-01-06: 0 submissions</title></rect><rect x="299" y="69" width="10" height="10" rx="2" fill="#161b22"><title>2026-01-07: 0 submissions</title></rect><rect x="299" y="82" width="10" height="10" rx="2" fill="#161b22"><title>2026-01-08: 0 submissions</title></rect><rect x="299" y="95" width="10" height="10" rx="2" fill="#161b22"><title>2026-01-09: 0 submissions</title></rect><rect x="299" y="108" width="10" height="10" rx="2" fill="#161b22"><title>2026-01-10: 0 submissions</title></rect><rect x="299" y="121" width="10" height="10" rx="2" fill="#161b22"><title>2026-01-11: 0 submissions</title></rect><rect x="299" y="134" width="10" height="10" rx="2" fill="#161b22"><title>2026-01-12: 0 submissions</title></rect><rect x="312" y="56" width="10" height="10" rx="2" fill="#161b22"><title>2026-01-13: 0 submissions</title></rect><rect x="312" y="69" width="10" height="10" rx="2" fill="#161b22"><title>2026-01-14: 0 submissions</title></rect><rect x="312" y="82" width="10" height="10" rx="2" fill="#161b22"><title>2026-01-15: 0 submissions</title></rect><rect x="312" y="95" width="10" height="10" rx="2" fill="#161b22"><title>2026-01-16: 0 submissions</title></rect><rect x="312" y="108" width="10" height="10" rx="2" fill="#161b22"><title>2026-01-17: 0 submissions</title></rect><rect x="312" y="121" width="10" height="10" rx="2" fill="#161b22"><title>2026-01-18: 0 submissions</title></rect><rect x="312" y="134" width="10" height="10" rx="2" fill="#161b22"><title>2026-01-19: 0 submissions</title></rect><rect x="325" y="56" width="10" height="10" rx="2" fill="#161b22"><title>2026-01-20: 0 submissions</title></rect><rect x="325" y="69" width="10" height="10" rx="2" fill="#161b22"><title>2026-01-21: 0 submissions</title></rect><rect x="325" y="82" width="10" height="10" rx="2" fill="#161b22"><title>2026-01-22: 0 submissions</title></rect><rect x="325" y="95" width="10" height="10" rx="2" fill="#161b22"><title>2026-01-23: 0 submissions</title></rect><rect x="325" y="108" width="10" height="10" rx="2" fill="#161b22"><title>2026-01-24: 0 submissions</title></rect><rect x="325" y="121" width="10" height="10" rx="2" fill="#161b22"><title>2026-01-25: 0 submissions</title></rect><rect x="325" y="134" width="10" height="10" rx="2" fill="#161b22"><title>2026-01-26: 0 submissions</title></rect><rect x="338" y="56" width="10" height="10" rx="2" fill="#161b22"><title>2026-01-27: 0 submissions</title></rect><rect x="338" y="69" width="10" height="10" rx="2" fill="#161b22"><title>2026-01-28: 0 submissions</title></rect><rect x="338" y="82" width="10" height="10" rx="2" fill="#161b22"><title>2026-01-29: 0 submissions</title></rect><rect x="338" y="95" width="10" height="10" rx="2" fill="#161b22"><title>2026-01-30: 0 submissions</title></rect><rect x="338" y="108" width="10" height="10" rx="2" fill="#161b22"><title>2026-01-31: 0 submissions</title></rect><rect x="338" y="121" width="10" height="10" rx="2" fill="#161b22"><title>2026-02-01: 0 submissions</title></rect><rect x="338" y="134" width="10" height="10" rx="2" fill="#161b22"><title>2026-02-02: 0 submissions</title></rect><rect x="351" y="56" width="10" height="10" rx="2" fill="#161b22"><title>2026-02-03: 0 submissions</title></rect><rect x="351" y="69" width="10" height="10" rx="2" fill="#161b22"><title>2026-02-04: 0 submissions</title></rect><rect x="351" y="82" width="10" height="10" rx="2" fill="#161b22"><title>2026-02-05: 0 submissions</title></rect><rect x="351" y="95" width="10" height="10" rx="2" fill="#161b22"><title>2026-02-06: 0 submissions</title></rect><rect x="351" y="108" width="10" height="10" rx="2" fill="#161b22"><title>2026-02-07: 0 submissions</title></rect><rect x="351" y="121" width="10" height="10" rx="2" fill="#161b22"><title>2026-02-08: 0 submissions</title></rect><rect x="351" y="134" width="10" height="10" rx="2" fill="#161b22"><title>2026-02-09: 0 submissions</title></rect><rect x="364" y="56" width="10" height="10" rx="2" fill="#161b22"><title>2026-02-10: 0 submissions</title></rect><rect x="364" y="69" width="10" height="10" rx="2" fill="#161b22"><title>2026-02-11: 0 submissions</title></rect><rect x="364" y="82" width="10" height="10" rx="2" fill="#161b22"><title>2026-02-12: 0 submissions</title></rect><rect x="364" y="95" width="10" height="10" rx="2" fill="#161b22"><title>2026-02-13: 0 submissions</title></rect><rect x="364" y="108" width="10" height="10" rx="2" fill="#161b22"><title>2026-02-14: 0 submissions</title></rect><rect x="364" y="121" width="10" height="10" rx="2" fill="#161b22"><title>2026-02-15: 0 submissions</title></rect><rect x="364" y="134" width="10" height="10" rx="2" fill="#161b22"><title>2026-02-16: 0 submissions</title></rect><rect x="377" y="56" width="10" height="10" rx="2" fill="#161b22"><title>2026-02-17: 0 submissions</title></rect><rect x="377" y="69" width="10" height="10" rx="2" fill="#161b22"><title>2026-02-18: 0 submissions</title></rect><rect x="377" y="82" width="10" height="10" rx="2" fill="#161b22"><title>2026-02-19: 0 submissions</title></rect><rect x="377" y="95" width="10" height="10" rx="2" fill="#161b22"><title>2026-02-20: 0 submissions</title></rect><rect x="377" y="108" width="10" height="10" rx="2" fill="#161b22"><title>2026-02-21: 0 submissions</title></rect><rect x="377" y="121" width="10" height="10" rx="2" fill="#161b22"><title>2026-02-22: 0 submissions</title></rect><rect x="377" y="134" width="10" height="10" rx="2" fill="#161b22"><title>2026-02-23: 0 submissions</title></rect><rect x="390" y="56" width="10" height="10" rx="2" fill="#161b22"><title>2026-02-24: 0 submissions</title></rect><rect x="390" y="69" width="10" height="10" rx="2" fill="#161b22"><title>2026-02-25: 0 submissions</title></rect><rect x="390" y="82" width="10" height="10" rx="2" fill="#161b22"><title>2026-02-26: 0 submissions</title></rect><rect x="390" y="95" width="10" height="10" rx="2" fill="#161b22"><title>2026-02-27: 0 submissions</title></rect><rect x="390" y="108" width="10" height="10" rx="2" fill="#161b22"><title>2026-02-28: 0 submissions</title></rect><rect x="390" y="121" width="10" height="10" rx="2" fill="#161b22"><title>2026-03-01: 0 submissions</title></rect><rect x="390" y="134" width="10" height="10" rx="2" fill="#161b22"><title>2026-03-02: 0 submissions</title></rect><rect x="403" y="56" width="10" height="10" rx="2" fill="#161b22"><title>2026-03-03: 0 submissions</title></rect><rect x="403" y="69" width="10" height="10" rx="2" fill="#161b22"><title>2026-03-04: 0 submissions</title></rect><rect x="403" y="82" width="10" height="10" rx="2" fill="#161b22"><title>2026-03-05: 0 submissions</title></rect><rect x="403" y="95" width="10" height="10" rx="2" fill="#161b22"><title>2026-03-06: 0 submissions</title></rect><rect x="403" y="108" width="10" height="10" rx="2" fill="#161b22"><title>2026-03-07: 0 submissions</title></rect><rect x="403" y="121" width="10" height="10" rx="2" fill="#161b22"><title>2026-03-08: 0 submissions</title></rect><rect x="403" y="134" width="10" height="10" rx="2" fill="#161b22"><title>2026-03-09: 0 submissions</title></rect><rect x="416" y="56" width="10" height="10" rx="2" fill="#161b22"><title>2026-03-10: 0 submissions</title></rect><rect x="416" y="69" width="10" height="10" rx="2" fill="#161b22"><title>2026-03-11: 0 submissions</title></rect><rect x="416" y="82" width="10" height="10" rx="2" fill="#161b22"><title>2026-03-12: 0 submissions</title></rect><rect x="416" y="95" width="10" height="10" rx="2" fill="#161b22"><title>2026-03-13: 0 submissions</title></rect><rect x="416" y="108" width="10" height="10" rx="2" fill="#161b22"><title>2026-03-14: 0 submissions</title></rect><rect x="416" y="121" width="10" height="10" rx="2" fill="#161b22"><title>2026-03-15: 0 submissions</title></rect><rect x="416" y="134" width="10" height="10" rx="2" fill="#161b22"><title>2026-03-16: 0 submissions</title></rect><rect x="429" y="56" width="10" height="10" rx="2" fill="#161b22"><title>2026-03-17: 0 submissions</title></rect><rect x="429" y="69" width="10" height="10" rx="2" fill="#161b22"><title>2026-03-18: 0 submissions</title></rect><rect x="429" y="82" width="10" height="10" rx="2" fill="#161b22"><title>2026-03-19: 0 submissions</title></rect><rect x="429" y="95" width="10" height="10" rx="2" fill="#161b22"><title>2026-03-20: 0 submissions</title></rect><rect x="429" y="108" width="10" height="10" rx="2" fill="#161b22"><title>2026-03-21: 0 submissions</title></rect><rect x="429" y="121" width="10" height="10" rx="2" fill="#161b22"><title>2026-03-22: 0 submissions</title></rect><rect x="429" y="134" width="10" height="10" rx="2" fill="#161b22"><title>2026-03-23: 0 submissions</title></rect><rect x="442" y="56" width="10" height="10" rx="2" fill="#161b22"><title>2026-03-24: 0 submissions</title></rect><rect x="442" y="69" width="10" height="10" rx="2" fill="#161b22"><title>2026-03-25: 0 submissions</title></rect><rect x="442" y="82" width="10" height="10" rx="2" fill="#161b22"><title>2026-03-26: 0 submissions</title></rect><rect x="442" y="95" width="10" height="10" rx="2" fill="#161b22"><title>2026-03-27: 0 submissions</title></rect><rect x="442" y="108" width="10" height="10" rx="2" fill="#161b22"><title>2026-03-28: 0 submissions</title></rect><rect x="442" y="121" width="10" height="10" rx="2" fill="#161b22"><title>2026-03-29: 0 submissions</title></rect><rect x="442" y="134" width="10" height="10" rx="2" fill="#161b22"><title>2026-03-30: 0 submissions</title></rect><rect x="455" y="56" width="10" height="10" rx="2" fill="#161b22"><title>2026-03-31: 0 submissions</title></rect><rect x="455" y="69" width="10" height="10" rx="2" fill="#161b22"><title>2026-04-01: 0 submissions</title></rect><rect x="455" y="82" width="10" height="10" rx="2" fill="#161b22"><title>2026-04-02: 0 submissions</title></rect><rect x="455" y="95" width="10" height="10" rx="2" fill="#161b22"><title>2026-04-03: 0 submissions</title></rect><rect x="455" y="108" width="10" height="10" rx="2" fill="#161b22"><title>2026-04-04: 0 submissions</title></rect><rect x="455" y="121" width="10" height="10" rx="2" fill="#161b22"><title>2026-04-05: 0 submissions</title></rect><rect x="455" y="134" width="10" height="10" rx="2" fill="#161b22"><title>2026-04-06: 0 submissions</title></rect><rect x="468" y="56" width="10" height="10" rx="2" fill="#161b22"><title>2026-04-07: 0 submissions</title></rect><rect x="468" y="69" width="10" height="10" rx="2" fill="#161b22"><title>2026-04-08: 0 submissions</title></rect><rect x="468" y="82" width="10" height="10" rx="2" fill="#161b22"><title>2026-04-09: 0 submissions</title></rect><rect x="468" y="95" width="10" height="10" rx="2" fill="#161b22"><title>2026-04-10: 0 submissions</title></rect><rect x="468" y="108" width="10" height="10" rx="2" fill="#161b22"><title>2026-04-11: 0 submissions</title></rect><rect x="468" y="121" width="10" height="10" rx="2" fill="#161b22"><title>2026-04-12: 0 submissions</title></rect><rect x="468" y="134" width="10" height="10" rx="2" fill="#161b22"><title>2026-04-13: 0 submissions</title></rect><rect x="481" y="56" width="10" height="10" rx="2" fill="#161b22"><title>2026-04-14: 0 submissions</title></rect><rect x="481" y="69" width="10" height="10" rx="2" fill="#161b22"><title>2026-04-15: 0 submissions</title></rect><rect x="481" y="82" width="10" height="10" rx="2" fill="#161b22"><title>2026-04-16: 0 submissions</title></rect><rect x="481" y="95" width="10" height="10" rx="2" fill="#161b22"><title>2026-04-17: 0 submissions</title></rect><rect x="481" y="108" width="10" height="10" rx="2" fill="#161b22"><title>2026-04-18: 0 submissions</title></rect><rect x="481" y="121" width="10" height="10" rx="2" fill="#161b22"><title>2026-04-19: 0 submissions</title></rect><rect x="481" y="134" width="10" height="10" rx="2" fill="#161b22"><title>2026-04-20: 0 submissions</title></rect><rect x="494" y="56" width="10" height="10" rx="2" fill="#161b22"><title>2026-04-21: 0 submissions</title></rect><rect x="494" y="69" width="10" height="10" rx="2" fill="#161b22"><title>2026-04-22: 0 submissions</title></rect><rect x="494" y="82" width="10" height="10" rx="2" fill="#161b22"><title>2026-04-23: 0 submissions</title></rect><rect x="494" y="95" width="10" height="10" rx="2" fill="#161b22"><title>2026-04-24: 0 submissions</title></rect><rect x="494" y="108" width="10" height="10" rx="2" fill="#161b22"><title>2026-04-25: 0 submissions</title></rect><rect x="494" y="121" width="10" height="10" rx="2" fill="#161b22"><title>2026-04-26: 0 submissions</title></rect><rect x="494" y="134" width="10" height="10" rx="2" fill="#161b22"><title>2026-04-27: 0 submissions</title></rect><rect x="507" y="56" width="10" height="10" rx="2" fill="#161b22"><title>2026-04-28: 0 submissions</title></rect><rect x="507" y="69" width="10" height="10" rx="2" fill="#161b22"><title>2026-04-29: 0 submissions</title></rect><rect x="507" y="82" width="10" height="10" rx="2" fill="#161b22"><title>2026-04-30: 0 submissions</title></rect><rect x="507" y="95" width="10" height="10" rx="2" fill="#161b22"><title>2026-05-01: 0 submissions</title></rect><rect x="507" y="108" width="10" height="10" rx="2" fill="#161b22"><title>2026-05-02: 0 submissions</title></rect><rect x="507" y="121" width="10" height="10" rx="2" fill="#161b22"><title>2026-05-03: 0 submissions</title></rect><rect x="507" y="134" width="10" height="10" rx="2" fill="#161b22"><title>2026-05-04: 0 submissions</title></rect><rect x="520" y="56" width="10" height="10" rx="2" fill="#161b22"><title>2026-05-05: 0 submissions</title></rect><rect x="520" y="69" width="10" height="10" rx="2" fill="#161b22"><title>2026-05-06: 0 submissions</title></rect><rect x="520" y="82" width="10" height="10" rx="2" fill="#161b22"><title>2026-05-07: 0 submissions</title></rect><rect x="520" y="95" width="10" height="10" rx="2" fill="#161b22"><title>2026-05-08: 0 submissions</title></rect><rect x="520" y="108" width="10" height="10" rx="2" fill="#161b22"><title>2026-05-09: 0 submissions</title></rect><rect x="520" y="121" width="10" height="10" rx="2" fill="#161b22"><title>2026-05-10: 0 submissions</title></rect><rect x="520" y="134" width="10" height="10" rx="2" fill="#161b22"><title>2026-05-11: 0 submissions</title></rect><rect x="533" y="56" width="10" height="10" rx="2" fill="#161b22"><title>2026-05-12: 0 submissions</title></rect><rect x="533" y="69" width="10" height="10" rx="2" fill="#161b22"><title>2026-05-13: 0 submissions</title></rect><rect x="533" y="82" width="10" height="10" rx="2" fill="#161b22"><title>2026-05-14: 0 submissions</title></rect><rect x="533" y="95" width="10" height="10" rx="2" fill="#161b22"><title>2026-05-15: 0 submissions</title></rect><rect x="533" y="108" width="10" height="10" rx="2" fill="#161b22"><title>2026-05-16: 0 submissions</title></rect><rect x="533" y="121" width="10" height="10" rx="2" fill="#161b22"><title>2026-05-17: 0 submissions</title></rect><rect x="533" y="134" width="10" height="10" rx="2" fill="#161b22"><title>2026-05-18: 0 submissions</title></rect><rect x="546" y="56" width="10" height="10" rx="2" fill="#161b22"><title>2026-05-19: 0 submissions</title></rect><rect x="546" y="69" width="10" height="10" rx="2" fill="#161b22"><title>2026-05-20: 0 submissions</title></rect><rect x="546" y="82" width="10" height="10" rx="2" fill="#161b22"><title>2026-05-21: 0 submissions</title></rect><rect x="546" y="95" width="10" height="10" rx="2" fill="#161b22"><title>2026-05-22: 0 submissions</title></rect><rect x="546" y="108" width="10" height="10" rx="2" fill="#161b22"><title>2026-05-23: 0 submissions</title></rect><rect x="546" y="121" width="10" height="10" rx="2" fill="#161b22"><title>2026-05-24: 0 submissions</title></rect><rect x="546" y="134" width="10" height="10" rx="2" fill="#161b22"><title>2026-05-25: 0 submissions</title></rect><rect x="559" y="56" width="10" height="10" rx="2" fill="#161b22"><title>2026-05-26: 0 submissions</title></rect><rect x="559" y="69" width="10" height="10" rx="2" fill="#161b22"><title>2026-05-27: 0 submissions</title></rect><rect x="559" y="82" width="10" height="10" rx="2" fill="#006d32"><title>2026-05-28: 4 submissions</title></rect><rect x="559" y="95" width="10" height="10" rx="2" fill="#161b22"><title>2026-05-29: 0 submissions</title></rect><rect x="559" y="108" width="10" height="10" rx="2" fill="#161b22"><title>2026-05-30: 0 submissions</title></rect><rect x="559" y="121" width="10" height="10" rx="2" fill="#161b22"><title>2026-05-31: 0 submissions</title></rect><rect x="559" y="134" width="10" height="10" rx="2" fill="#161b22"><title>2026-06-01: 0 submissions</title></rect><rect x="572" y="56" width="10" height="10" rx="2" fill="#161b22"><title>2026-06-02: 0 submissions</title></rect><rect x="572" y="69" width="10" height="10" rx="2" fill="#161b22"><title>2026-06-03: 0 submissions</title></rect><rect x="572" y="82" width="10" height="10" rx="2" fill="#161b22"><title>2026-06-04: 0 submissions</title></rect><rect x="572" y="95" width="10" height="10" rx="2" fill="#161b22"><title>2026-06-05: 0 submissions</title></rect><rect x="572" y="108" width="10" height="10" rx="2" fill="#161b22"><title>2026-06-06: 0 submissions</title></rect><rect x="572" y="121" width="10" height="10" rx="2" fill="#161b22"><title>2026-06-07: 0 submissions</title></rect><rect x="572" y="134" width="10" height="10" rx="2" fill="#161b22"><title>2026-06-08: 0 submissions</title></rect><rect x="585" y="56" width="10" height="10" rx="2" fill="#161b22"><title>2026-06-09: 0 submissions</title></rect><rect x="585" y="69" width="10" height="10" rx="2" fill="#161b22"><title>2026-06-10: 0 submissions</title></rect><rect x="585" y="82" width="10" height="10" rx="2" fill="#161b22"><title>2026-06-11: 0 submissions</title></rect><rect x="585" y="95" width="10" height="10" rx="2" fill="#161b22"><title>2026-06-12: 0 submissions</title></rect><rect x="585" y="108" width="10" height="10" rx="2" fill="#161b22"><title>2026-06-13: 0 submissions</title></rect><rect x="585" y="121" width="10" height="10" rx="2" fill="#161b22"><title>2026-06-14: 0 submissions</title></rect><rect x="585" y="134" width="10" height="10" rx="2" fill="#161b22"><title>2026-06-15: 0 submissions</title></rect><rect x="598" y="56" width="10" height="10" rx="2" fill="#161b22"><title>2026-06-16: 0 submissions</title></rect><rect x="598" y="69" width="10" height="10" rx="2" fill="#161b22"><title>2026-06-17: 0 submissions</title></rect><rect x="598" y="82" width="10" height="10" rx="2" fill="#161b22"><title>2026-06-18: 0 submissions</title></rect><rect x="598" y="95" width="10" height="10" rx="2" fill="#161b22"><title>2026-06-19: 0 submissions</title></rect><rect x="598" y="108" width="10" height="10" rx="2" fill="#161b22"><title>2026-06-20: 0 submissions</title></rect><rect x="598" y="121" width="10" height="10" rx="2" fill="#161b22"><title>2026-06-21: 0 submissions</title></rect><rect x="598" y="134" width="10" height="10" rx="2" fill="#161b22"><title>2026-06-22: 0 submissions</title></rect><rect x="611" y="56" width="10" height="10" rx="2" fill="#161b22"><title>2026-06-23: 0 submissions</title></rect><rect x="611" y="69" width="10" height="10" rx="2" fill="#161b22"><title>2026-06-24: 0 submissions</title></rect><rect x="611" y="82" width="10" height="10" rx="2" fill="#161b22"><title>2026-06-25: 0 submissions</title></rect><rect x="611" y="95" width="10" height="10" rx="2" fill="#161b22"><title>2026-06-26: 0 submissions</title></rect><rect x="611" y="108" width="10" height="10" rx="2" fill="#161b22"><title>2026-06-27: 0 submissions</title></rect><rect x="611" y="121" width="10" height="10" rx="2" fill="#161b22"><title>2026-06-28: 0 submissions</title></rect><rect x="611" y="134" width="10" height="10" rx="2" fill="#161b22"><title>2026-06-29: 0 submissions</title></rect><rect x="624" y="56" width="10" height="10" rx="2" fill="#161b22"><title>2026-06-30: 0 submissions</title></rect><rect x="624" y="69" width="10" height="10" rx="2" fill="#161b22"><title>2026-07-01: 0 submissions</title></rect><rect x="624" y="82" width="10" height="10" rx="2" fill="#161b22"><title>2026-07-02: 0 submissions</title></rect><rect x="624" y="95" width="10" height="10" rx="2" fill="#161b22"><title>2026-07-03: 0 submissions</title></rect><rect x="624" y="108" width="10" height="10" rx="2" fill="#161b22"><title>2026-07-04: 0 submissions</title></rect><rect x="624" y="121" width="10" height="10" rx="2" fill="#161b22"><title>2026-07-05: 0 submissions</title></rect><rect x="624" y="134" width="10" height="10" rx="2" fill="#161b22"><title>2026-07-06: 0 submissions</title></rect><rect x="637" y="56" width="10" height="10" rx="2" fill="#006d32"><title>2026-07-07: 5 submissions</title></rect><rect x="637" y="69" width="10" height="10" rx="2" fill="#161b22"><title>2026-07-08: 0 submissions</title></rect><rect x="637" y="82" width="10" height="10" rx="2" fill="#161b22"><title>2026-07-09: 0 submissions</title></rect><rect x="637" y="95" width="10" height="10" rx="2" fill="#161b22"><title>2026-07-10: 0 submissions</title></rect><rect x="637" y="108" width="10" height="10" rx="2" fill="#006d32"><title>2026-07-11: 3 submissions</title></rect><rect x="637" y="121" width="10" height="10" rx="2" fill="#161b22"><title>2026-07-12: 0 submissions</title></rect><rect x="637" y="134" width="10" height="10" rx="2" fill="#161b22"><title>2026-07-13: 0 submissions</title></rect><rect x="650" y="56" width="10" height="10" rx="2" fill="#161b22"><title>2026-07-14: 0 submissions</title></rect><rect x="650" y="69" width="10" height="10" rx="2" fill="#161b22"><title>2026-07-15: 0 submissions</title></rect><rect x="650" y="82" width="10" height="10" rx="2" fill="#161b22"><title>2026-07-16: 0 submissions</title></rect><rect x="650" y="95" width="10" height="10" rx="2" fill="#161b22"><title>2026-07-17: 0 submissions</title></rect><rect x="650" y="108" width="10" height="10" rx="2" fill="#161b22"><title>2026-07-18: 0 submissions</title></rect><rect x="650" y="121" width="10" height="10" rx="2" fill="#161b22"><title>2026-07-19: 0 submissions</title></rect><rect x="650" y="134" width="10" height="10" rx="2" fill="#161b22"><title>2026-07-20: 0 submissions</title></rect><rect x="663" y="56" width="10" height="10" rx="2" fill="#161b22"><title>2026-07-21: 0 submissions</title></rect><rect x="663" y="69" width="10" height="10" rx="2" fill="#161b22"><title>2026-07-22: 0 submissions</title></rect><rect x="663" y="82" width="10" height="10" rx="2" fill="#161b22"><title>2026-07-23: 0 submissions</title></rect><rect x="663" y="95" width="10" height="10" rx="2" fill="#161b22"><title>2026-07-24: 0 submissions</title></rect><rect x="663" y="108" width="10" height="10" rx="2" fill="#161b22"><title>2026-07-25: 0 submissions</title></rect><rect x="663" y="121" width="10" height="10" rx="2" fill="#26a641"><title>2026-07-26: 6 submissions</title></rect><rect x="663" y="134" width="10" height="10" rx="2" fill="#006d32"><title>2026-07-27: 3 submissions</title></rect><rect x="676" y="56" width="10" height="10" rx="2" fill="#26a641"><title>2026-07-28: 8 submissions</title></rect><rect x="676" y="69" width="10" height="10" rx="2" fill="#0e4429"><title>2026-07-29: 2 submissions</title></rect><rect x="676" y="82" width="10" height="10" rx="2" fill="#0e4429"><title>2026-07-30: 2 submissions</title></rect><rect x="676" y="95" width="10" height="10" rx="2" fill="#006d32"><title>2026-07-31: 4 submissions</title></rect><rect x="676" y="108" width="10" height="10" rx="2" fill="#0e4429"><title>2026-08-01: 1 submission</title></rect><rect x="676" y="121" width="10" height="10" rx="2" fill="#0e4429"><title>2026-08-02: 1 submission</title></rect><rect x="676" y="134" width="10" height="10" rx="2" fill="#26a641"><title>2026-08-03: 8 submissions</title></rect><rect x="689" y="56" width="10" height="10" rx="2" fill="#0e4429"><title>2026-08-04: 2 submissions</title></rect><rect x="689" y="69" width="10" height="10" rx="2" fill="#0e4429"><title>2026-08-05: 1 submission</title></rect><rect x="689" y="82" width="10" height="10" rx="2" fill="#0e4429"><title>2026-08-06: 1 submission</title></rect><rect x="689" y="95" width="10" height="10" rx="2" fill="#0e4429"><title>2026-08-07: 1 submission</title></rect><rect x="689" y="108" width="10" height="10" rx="2" fill="#006d32"><title>2026-08-08: 3 submissions</title></rect><rect x="689" y="121" width="10" height="10" rx="2" fill="#006d32"><title>2026-08-09: 4 submissions</title></rect><rect x="689" y="134" width="10" height="10" rx="2" fill="#0e4429"><title>2026-08-10: 2 submissions</title></rect><rect x="702" y="56" width="10" height="10" rx="2" fill="#0e4429"><title>2026-08-11: 1 submission</title></rect></svg>
